<svg width="619" height="249" viewBox="0 0 619 249" fill="none" xmlns="http://www.w3.org/2000/svg">
<g filter="url(#filter0_d_1_166)">
<path d="M610.847 186.416C612.758 179.306 596.256 138.522 587.767 119.019L585.379 112.256L581.4 126.425C580.604 130.375 578.216 139.756 575.033 145.681C573.965 147.668 573.584 149.599 573.619 151.363C573.725 156.806 577.031 161.938 577.259 167.377C577.418 171.173 577.337 174.644 576.625 175.306C575.689 176.177 575.269 179.236 575.112 181.777C575.013 183.383 575.206 184.986 575.402 186.583C575.797 189.821 576.017 194.603 575.033 198.266C573.998 202.119 571.84 207.213 570.357 210.443C569.774 211.71 569.074 212.946 567.966 213.792C565.992 215.299 562.329 217.087 556.728 217.522C554.04 217.73 551.537 218.678 549.328 219.958C542.898 223.686 536.522 228.442 529.094 228.212C524.213 228.062 518.534 227.563 512.954 226.409C511.281 226.063 509.813 225.797 508.529 225.598C505.393 225.113 493.789 222.025 491.466 224.188V224.188C490.829 224.78 474.752 225.916 466.793 226.409L444.894 229.039C443.051 229.26 441.189 229.276 439.343 229.085L429.741 228.092C428.446 227.958 427.142 227.925 425.842 227.995L399.939 229.372H389.671C381.716 229.372 370.356 230.781 362.493 231.983V231.983C361.8 232.089 359.793 232.344 359.093 232.305C352.5 231.946 346.576 228.36 345.82 227.891L338.657 223.447C335.473 221.225 350.913 234.556 352.187 234.556C353.46 234.556 363.329 235.544 368.104 236.038H380.838L401.531 237.519H406.307L424.612 236.038H469.181L497.037 232.334L566.304 228.084C568.401 227.956 570.473 227.563 572.472 226.916L584.872 222.903C586.795 222.28 588.635 221.427 590.353 220.362L594.679 217.678C599.479 214.699 603.142 210.187 604.974 204.843C607.122 198.577 609.592 191.088 610.847 186.416Z" fill="#74797C"/>
<path d="M116.395 20.7823C114.947 21.0976 113.53 21.5411 112.161 22.1075L71.2415 39.0312C70.1803 41.5 67.4213 46.4375 64.8744 46.4375C62.7239 46.4375 59.6654 51.7183 57.8073 55.5912C57.1886 56.8809 56.7486 58.2464 56.4163 59.6378L54.4158 68.015C53.9616 69.9172 53.7492 71.8655 53.6045 73.8158C53.3771 76.8805 52.8103 81.3491 51.629 86.1974C50.9889 88.8244 49.7243 91.2427 48.2308 93.4967C44.5744 99.0149 42.4599 103.294 41.7939 104.947V119.759V142.719C41.7939 146.916 41.3164 157.087 39.4063 164.197C38.0096 169.396 42.2017 174.912 46.3194 178.659C48.9414 181.046 51.5709 183.497 53.2924 186.596C56.3704 192.137 59.3437 198.843 56.9156 199.747C53.7321 200.932 66.7315 219.497 73.6291 228.631L107.255 232.626C109.761 232.924 112.295 232.828 114.797 232.499C120.486 231.752 130.471 230.853 142.871 230.853C162.768 230.853 177.889 233.075 185.848 233.075C190.719 233.075 198.074 232.208 203.281 231.469C205.972 231.087 208.705 231.078 211.388 231.518L220.867 233.075C228.826 234.556 250.155 237.223 271.803 236.038C273.693 235.934 275.428 235.852 277.017 235.79C280.498 235.654 306.534 236.331 310.005 236.038V236.038H326.383C327.666 236.038 328.947 236.136 330.215 236.333L344.845 238.602C346.552 238.867 348.28 238.954 350.005 238.862L375.267 237.519H401.531L380.838 236.038H368.104C363.329 235.544 353.46 234.556 352.187 234.556C350.913 234.556 335.473 221.225 338.657 223.447L345.82 227.891C346.576 228.36 352.5 231.946 359.093 232.305C359.793 232.344 361.8 232.089 362.493 231.983V231.983C370.356 230.781 381.716 229.372 389.671 229.372H399.939L425.842 227.995C427.142 227.925 428.446 227.958 429.741 228.092L439.343 229.085C441.189 229.276 443.051 229.26 444.894 229.039L466.793 226.409C474.752 225.916 490.829 224.78 491.466 224.188V224.188C493.789 222.025 505.393 225.113 508.529 225.598C509.813 225.797 511.281 226.063 512.954 226.409C518.534 227.563 524.213 228.062 529.094 228.212C536.522 228.442 542.898 223.686 549.328 219.958C551.537 218.678 554.04 217.73 556.728 217.522C562.329 217.087 565.992 215.299 567.966 213.792C569.074 212.946 569.774 211.71 570.357 210.443C571.84 207.213 573.998 202.119 575.033 198.266C576.017 194.603 575.797 189.821 575.402 186.583C575.206 184.986 575.013 183.383 575.112 181.777C575.269 179.236 575.689 176.177 576.625 175.306C577.337 174.644 577.418 171.173 577.259 167.377C577.031 161.938 573.725 156.806 573.619 151.363C573.584 149.599 573.965 147.668 575.033 145.681C578.216 139.756 580.604 130.375 581.4 126.425L585.379 112.256L571.053 87.9125L541.984 40.408C539.652 36.5974 536.342 33.4812 532.397 31.3837L504.996 16.8125C499.424 14.0969 485.417 8.36938 473.956 7.18438C459.63 5.70313 446.896 8.66563 446.1 8.66563C445.464 8.66563 428.326 6.69063 419.836 5.70313H372.084C367.308 5.70313 356.803 5.99938 352.983 7.18438C349.162 8.36938 340.249 6.69063 336.269 5.70313H313.985C310.164 5.70313 291.7 4.71563 282.945 4.22188L251.461 2.17782C249.641 2.05963 247.813 2.14106 246.01 2.42067L234.397 4.22188C223.785 5.45625 200.651 8.22125 193.011 9.40625C185.903 10.5087 165.385 12.5514 154.016 13.0294C152.423 13.0964 150.841 13.2802 149.283 13.6195L116.395 20.7823Z" fill="#DCDDD7"/>
<path d="M71.2415 39.0312L45.1159 54.6157C41.8819 56.5449 39.1255 59.1797 37.0525 62.3234L29.4578 73.8406C25.8764 79.2719 18.0768 91.6156 15.5299 97.5406C13.9066 101.317 13.4904 105.896 13.5395 109.552C13.5841 112.881 13.5445 116.243 12.7258 119.471C11.4669 124.434 9.94257 130.188 9.16291 133.091L4.38764 158.272C3.59176 161.728 2 170.27 2 176.787C2 180.565 3.06918 184.358 4.27812 187.361C5.65034 190.77 6.89304 194.307 8.42307 197.648C11.6594 204.714 18.7129 212.41 23.8736 217.239C25.694 218.943 27.8356 220.244 30.1286 221.223C34.1909 222.957 39.9089 225.383 44.1816 227.15C49.9119 229.52 66.7315 229.125 73.6291 228.631C66.7315 219.497 53.7321 200.932 56.9156 199.747C59.3437 198.843 56.3704 192.137 53.2924 186.596C51.5709 183.497 48.9414 181.046 46.3194 178.659C42.2017 174.912 38.0096 169.396 39.4063 164.197C41.3164 157.087 41.7939 146.916 41.7939 142.719V119.759V104.947C42.4599 103.294 44.5744 99.0149 48.2308 93.4967C49.7243 91.2427 50.9889 88.8244 51.629 86.1974C52.8103 81.3491 53.3771 76.8805 53.6045 73.8158C53.7492 71.8655 53.9616 69.9172 54.4158 68.015L56.4163 59.6378C56.7486 58.2464 57.1886 56.8809 57.8073 55.5912C59.6654 51.7183 62.7239 46.4375 64.8744 46.4375C67.4213 46.4375 70.1803 41.5 71.2415 39.0312Z" fill="#74797C"/>
<path d="M18.7135 90.1344L29.4578 73.8406M71.2415 39.0312L45.1159 54.6157C41.8819 56.5449 39.1255 59.1797 37.0525 62.3234L29.4578 73.8406M71.2415 39.0312L112.161 22.1075C113.53 21.5411 114.947 21.0976 116.395 20.7823L149.283 13.6195C150.841 13.2802 152.423 13.0964 154.016 13.0294C165.385 12.5514 185.903 10.5087 193.011 9.40625C200.651 8.22125 223.785 5.45625 234.397 4.22188L246.01 2.42067C247.813 2.14106 249.641 2.05963 251.461 2.17782L282.945 4.22188C291.7 4.71563 310.164 5.70313 313.985 5.70313M71.2415 39.0312C70.1803 41.5 67.4213 46.4375 64.8744 46.4375C62.7239 46.4375 59.6654 51.7183 57.8073 55.5912C57.1886 56.8809 56.7486 58.2464 56.4163 59.6378L54.4158 68.015C53.9616 69.9172 53.7492 71.8655 53.6045 73.8158C53.3771 76.8805 52.8103 81.3491 51.629 86.1974C50.9889 88.8244 49.7243 91.2427 48.2308 93.4967C44.5744 99.0149 42.4599 103.294 41.7939 104.947M313.985 5.70313C317.805 5.70313 330.433 5.70313 336.269 5.70313M313.985 5.70313H336.269M336.269 5.70313C340.249 6.69063 349.162 8.36938 352.983 7.18438C356.803 5.99938 367.308 5.70313 372.084 5.70313H419.836C428.326 6.69063 445.464 8.66563 446.1 8.66563C446.896 8.66563 459.63 5.70313 473.956 7.18438C485.417 8.36938 499.424 14.0969 504.996 16.8125L532.397 31.3837C536.342 33.4812 539.652 36.5974 541.984 40.408L571.053 87.9125L585.379 112.256M73.6291 228.631L107.255 232.626C109.761 232.924 112.295 232.828 114.797 232.499C120.486 231.752 130.471 230.853 142.871 230.853C162.768 230.853 177.889 233.075 185.848 233.075C190.719 233.075 198.074 232.208 203.281 231.469C205.972 231.087 208.705 231.078 211.388 231.518L220.867 233.075C228.826 234.556 250.155 237.223 271.803 236.038C273.693 235.934 275.428 235.852 277.017 235.79C280.498 235.654 306.534 236.331 310.005 236.038V236.038H326.383C327.666 236.038 328.947 236.136 330.215 236.333L344.845 238.602C346.552 238.867 348.28 238.954 350.005 238.862L375.267 237.519H401.531M73.6291 228.631C66.7315 229.125 49.9119 229.52 44.1816 227.15C39.9089 225.383 34.1909 222.957 30.1286 221.223C27.8356 220.244 25.694 218.943 23.8736 217.239C18.7129 212.41 11.6594 204.714 8.42307 197.648C6.89304 194.307 5.65034 190.77 4.27812 187.361C3.06918 184.358 2 180.565 2 176.787C2 170.27 3.59176 161.728 4.38764 158.272L9.16291 133.091C9.94257 130.188 11.4669 124.434 12.7258 119.471C13.5445 116.243 13.5841 112.881 13.5395 109.552C13.4904 105.896 13.9066 101.317 15.5299 97.5406C18.0768 91.6156 25.8764 79.2719 29.4578 73.8406M73.6291 228.631C66.7315 219.497 53.7321 200.932 56.9156 199.747C59.3437 198.843 56.3704 192.137 53.2924 186.596C51.5709 183.497 48.9414 181.046 46.3194 178.659C42.2017 174.912 38.0096 169.396 39.4063 164.197C41.3164 157.087 41.7939 146.916 41.7939 142.719V119.759M585.379 112.256L587.767 119.019C596.256 138.522 612.758 179.306 610.847 186.416C609.592 191.088 607.122 198.577 604.974 204.843C603.142 210.187 599.479 214.699 594.679 217.678L590.353 220.362C588.635 221.427 586.795 222.28 584.872 222.903L572.472 226.916C570.473 227.563 568.401 227.956 566.304 228.084L497.037 232.334L469.181 236.038H424.612L406.307 237.519H401.531M585.379 112.256L581.4 126.425C580.604 130.375 578.216 139.756 575.033 145.681C573.965 147.668 573.584 149.599 573.619 151.363C573.725 156.806 577.031 161.938 577.259 167.377C577.418 171.173 577.337 174.644 576.625 175.306C575.689 176.177 575.269 179.236 575.112 181.777C575.013 183.383 575.206 184.986 575.402 186.583C575.797 189.821 576.017 194.603 575.033 198.266C573.998 202.119 571.84 207.213 570.357 210.443C569.774 211.71 569.074 212.946 567.966 213.792C565.992 215.299 562.329 217.087 556.728 217.522C554.04 217.73 551.537 218.678 549.328 219.958C542.898 223.686 536.522 228.442 529.094 228.212C524.213 228.062 518.534 227.563 512.954 226.409C511.281 226.063 509.813 225.797 508.529 225.598C505.393 225.113 493.789 222.025 491.466 224.188V224.188C490.829 224.78 474.752 225.916 466.793 226.409L444.894 229.039C443.051 229.26 441.189 229.276 439.343 229.085L429.741 228.092C428.446 227.958 427.142 227.925 425.842 227.995L399.939 229.372H389.671C381.716 229.372 370.356 230.781 362.493 231.983V231.983C361.8 232.089 359.793 232.344 359.093 232.305C352.5 231.946 346.576 228.36 345.82 227.891L338.657 223.447C335.473 221.225 350.913 234.556 352.187 234.556C353.46 234.556 363.329 235.544 368.104 236.038H380.838L401.531 237.519M41.7939 119.759C41.7939 111.464 41.7939 106.428 41.7939 104.947M41.7939 119.759V104.947" stroke="#150D00" stroke-width="2.4"/>
</g>
<defs>
<filter id="filter0_d_1_166" x="0.799988" y="0.925293" width="618.2" height="247.572" filterUnits="userSpaceOnUse" color-interpolation-filters="sRGB">
<feFlood flood-opacity="0" result="BackgroundImageFix"/>
<feColorMatrix in="SourceAlpha" type="matrix" values="0 0 0 0 0 0 0 0 0 0 0 0 0 0 0 0 0 0 127 0" result="hardAlpha"/>
<feOffset dx="3.8" dy="5.4"/>
<feGaussianBlur stdDeviation="1.5"/>
<feComposite in2="hardAlpha" operator="out"/>
<feColorMatrix type="matrix" values="0 0 0 0 0 0 0 0 0 0 0 0 0 0 0 0 0 0 0.25 0"/>
<feBlend mode="normal" in2="BackgroundImageFix" result="effect1_dropShadow_1_166"/>
<feBlend mode="normal" in="SourceGraphic" in2="effect1_dropShadow_1_166" result="shape"/>
</filter>
</defs>
</svg>
